<svg xmlns="http://www.w3.org/2000/svg" viewBox="0 0 271.35 239.38"><defs><style>.a{fill:#9e93ba}.b{fill:#231f20}.c{fill:#7bb6d8}.d{fill:#4d78af}.e{fill:#add1ef}.f{fill:#939598}.g{fill:#fff}.h{fill:#d1d3d4}.i{fill:#bfe7fb}.j{fill:#b9e5fb}</style></defs><path class="a" d="M8.6 178.28s-6.6 61.1 55.59 61.1S121 181 121 181z"/><ellipse class="b" cx="64.5" cy="181.02" rx="56.53" ry="36.41"/><path class="c" d="M71 216.44a1 1 0 0 1-.32-.06 4.93 4.93 0 0 1-2.68-2.23 2.55 2.55 0 0 1 .11-2.23A17.89 17.89 0 0 1 69.3 210c1-1.5 1.55-2.47 1.12-3.25a.53.53 0 0 0-.63-.33 1.87 1.87 0 0 0-1.35 1 .84.84 0 0 1-1 .63.78.78 0 0 1-.7-.89 3.42 3.42 0 0 1 2.77-2.24 2.23 2.23 0 0 1 2.39 1.17c.88 1.6-.16 3.19-1.18 4.73a18.66 18.66 0 0 0-1.06 1.76 1.13 1.13 0 0 0-.08 1 2.63 2.63 0 0 0 1.08 1.06 3.63 3.63 0 0 1 4-1.41 5.49 5.49 0 0 0 1.37.3 4.89 4.89 0 0 0-.62-.79c-.44-.48-.86-.89-1.24-1.25-1.39-1.35-2.7-2.62-1.22-4.35a5.94 5.94 0 0 0 1-4.61c-.12-.3-.25-.32-.29-.33a.81.81 0 0 1-.67-.61c-.27-1.23-.88-2.38-1.2-2.45a.84.84 0 0 0-.22.13c-.83.69-3.37 2.77-5.3 1a9.23 9.23 0 0 1-.72-.76c-.43-.48-1.23-1.38-1.65-1.4a.41.41 0 0 0-.18.11.54.54 0 0 0-.19.5c.05.88 1.18 2.32 2.75 3.49a3.46 3.46 0 0 1 1.64 3 1.28 1.28 0 0 1-.88 1c-.8.28-1.83-.07-3.15-1.07a6 6 0 0 0-1.57-.9 9.13 9.13 0 0 0 2.32 2.66c1.25 1.09 2.6 2.49 2 3.66s-2.49 1-2.87.92a.65.65 0 0 1-.19 0 5.87 5.87 0 0 0-3.09-.37.17.17 0 0 0-.1.14 3.76 3.76 0 0 1-2.1 2.31c-.43.25-.87.51-.9.72a2.06 2.06 0 0 1-1.12 1.6c-2.18 1.17-6.83-.47-7.74-.81a.78.78 0 0 1-.53-.68.76.76 0 0 1 .47-.72 7.46 7.46 0 0 0 2.06-1.32 2.2 2.2 0 0 0-.54-.15c-3.64-.7-5.58-1.54-6.31-2.73a2 2 0 0 1-.13-1.89 2.45 2.45 0 0 1 2.45-1.89 8.9 8.9 0 0 0 2.17-.51c.67-.25 1.42-.48 2.13-.71.35-.11.75-.23 1.12-.36l-2.15-.37a.83.83 0 0 1-.57-.36.68.68 0 0 1-.08-.63 15.89 15.89 0 0 0 .81-3.23 4 4 0 0 1-2.76.84 1.43 1.43 0 0 1-1-.58.73.73 0 0 1 0-.78c0-.05.31-.69-.92-1.58a14.79 14.79 0 0 0-1.32-.84c-1.09-.64-2.13-1.25-2.19-2.23a2.07 2.07 0 0 1 1.06-1.73 10.88 10.88 0 0 1 2.5-1.42 1.87 1.87 0 0 1-.27-.48 2.28 2.28 0 0 1 .41-2.21c.87-1.25 3.07-4.1 4.82-3.77a1.58 1.58 0 0 1 1.24 1.51 2 2 0 0 0 1.38 1.75.77.77 0 0 0 .82-.23c.79-1 2.62-1.78 3.79-1.26a1.45 1.45 0 0 1 .72 1.94c-.36 1.09-1.68 1.85-2.85 2.53l-.42.24a7.36 7.36 0 0 0 1.41-.2c1.08-.22 1.84-.64 2.91 0s2.32 1.79 2 2.9c-.27.85-1.27 1.27-3 1.27a21.23 21.23 0 0 0-4.86.49 2.08 2.08 0 0 0 .25.21 10.39 10.39 0 0 0 2.36 1.32c1.21.54 2.58 1.14 2.24 3a2.87 2.87 0 0 0 .45 1.7c.49 1 1.21 2.46-1 3.64-.76.4-1.57.73-2.29 1a13.4 13.4 0 0 0-2 .93c.9.64 3.7.29 4.65-.15a.74.74 0 0 1 .19-.6.89.89 0 0 1 1.19-.09 1 1 0 0 1 .18 1.52c-.94 1.07-5.51 1.78-7.25.54a1.45 1.45 0 0 1-.77-1.38c.12-1 1.34-1.49 3-2.19.71-.3 1.46-.61 2.15-1 .93-.49.84-.67.35-1.66a4.08 4.08 0 0 1-.58-2.6c.12-.65 0-.76-1.31-1.35a12.55 12.55 0 0 1-2.71-1.46c-.85-.66-1.16-1.3-.92-1.91.52-1.27 2.57-1.51 6.63-1.51 1.15 0 1.39-.21 1.39-.21a3.77 3.77 0 0 0-1.27-1.11 3.48 3.48 0 0 0-2.11.06c-1 .2-1.69.6-2.77.17-.67-.27-.84-.68-.86-1-.06-.78.73-1.24 1.84-1.88.77-.45 1.95-1.13 2.13-1.67v-.11a2.37 2.37 0 0 0-1.54.78 2.54 2.54 0 0 1-2.6.83 3.59 3.59 0 0 1-2.68-3.05 1.23 1.23 0 0 0 0-.16 10.62 10.62 0 0 0-2.92 3 1 1 0 0 0-.25.85 1.33 1.33 0 0 0 .75.58.77.77 0 0 1 .56.82.81.81 0 0 1-.74.68 7.74 7.74 0 0 0-3.31 1.54c-.41.31-.45.46-.45.46.06.21.91.71 1.42 1s1 .58 1.46.93a3.14 3.14 0 0 1 1.59 2.57 5.19 5.19 0 0 0 1.32-.7 1.54 1.54 0 0 1 1.81-.22c.3.2 1.17.76 0 4.52l2.08.36c.54.09 1.66.28 1.73 1.13s-1.11 1.32-3.46 2.06c-.69.22-1.41.45-2.06.69a11.3 11.3 0 0 1-2.57.6c-.79.1-.79.1-1.08.83a.6.6 0 0 0 0 .61c.3.5 1.45 1.25 5.17 2 1.21.23 1.87.7 2 1.4s-.62 1.51-1.48 2.09c1.77.49 3.77.81 4.58.37a.55.55 0 0 0 .3-.46c.12-.93.94-1.41 1.67-1.83s1.22-.76 1.35-1.31a1.72 1.72 0 0 1 .95-1.19c1.35-.68 3.71 0 4.39.24a3 3 0 0 0 1-.08c0-.17-.29-.72-1.6-1.86-2.59-2.26-3.51-4-2.59-5 .78-.79 2.27-.46 4.09.91a5.27 5.27 0 0 0 1.24.74 2.78 2.78 0 0 0-1-1.26c-1.57-1.17-3.29-3-3.37-4.61a2 2 0 0 1 .68-1.68 1.94 1.94 0 0 1 1.47-.55c1.16.05 2.07 1.07 2.87 2 .23.25.43.48.61.65s.79.73 3-1.06a2 2 0 0 1 1.89-.45c1.3.39 2 2.22 2.22 3.2a2.15 2.15 0 0 1 1 1.12c.69 1.7-.1 4.77-1.24 6.1-.5.59-.46.79 1.12 2.34.4.38.84.81 1.3 1.31s1.66 1.78.91 2.77-2.3.58-3.53.17-2.37 1.33-2.38 1.33a.88.88 0 0 1-.74.44zm-20.32-4.07zm7.2-4.51zm-5-3.45zM82.64 214a.83.83 0 0 1-.77-.46 4 4 0 0 1-.08-3.24 3.66 3.66 0 0 1 2.5-1.76 15.1 15.1 0 0 0 4.32-1.54 4 4 0 0 0-.6-.23 18.79 18.79 0 0 0-2.82-.61 5 5 0 0 1-3.59-1.69 6.06 6.06 0 0 0-1.15-1c-1.32-.94-2.18-1.85-.39-4.23l.34-.44c1.33-1.78 2.21-3 3.53-3a3.24 3.24 0 0 1 2.38 1.51 3.63 3.63 0 0 1 .79 3.15 1.7 1.7 0 0 0 0 .22 4 4 0 0 0 .68.08h.6c1.29.07 5.11.3 5.86-.18a1.5 1.5 0 0 0-.22-.32 12.17 12.17 0 0 0-3-2.06c-1.72-1-3.21-1.83-3.14-3.05s1.45-1.7 1.9-1.9a6.63 6.63 0 0 1 6.59.39 3.14 3.14 0 0 1 1.55 3c-.14.6.94 2.37 2 2.77a.52.52 0 0 0 .74-.26c1.17-1.73 3.26-3.58 5.12-3.58a2.5 2.5 0 0 1 2.13 1.2c.77 1.21 1.55 2.62 1 4-.46 1.14-1.73 2-3.89 2.75a20.4 20.4 0 0 1-5.23.89c-2.21.16-3.22.28-3.88 1.47a4 4 0 0 0-.51 2.18c0 1.26-.18 2.15-2.57 3-3.39 1.2-9.78 2.7-10.05 2.77zM84 197.38c-.44 0-1.35 1.22-2.15 2.29l-.34.45c-1 1.37-.89 1.47 0 2.13a7.89 7.89 0 0 1 1.44 1.23 3.31 3.31 0 0 0 2.54 1.13 22.29 22.29 0 0 1 3.07.67c.48.15 1.94.59 1.91 1.69 0 .8-.72 1.79-5.7 3.05a2 2 0 0 0-1.42.92 2 2 0 0 0-.11 1.34c1.83-.45 6.46-1.6 9.07-2.53 1.49-.52 1.49-.74 1.49-1.55a5.35 5.35 0 0 1 .69-2.87c1.11-2 3.13-2.17 5.26-2.32a19.12 19.12 0 0 0 4.79-.8c1.63-.54 2.59-1.15 2.86-1.83s-.12-1.55-.86-2.71a.76.76 0 0 0-.69-.43c-1 0-2.61 1.27-3.67 2.84a2.26 2.26 0 0 1-2.82.88c-1.75-.64-3.4-3.1-3-4.54.07-.28-.18-.94-1-1.5a4.69 4.69 0 0 0-4.81-.2c-.84.37-.93.6-.93.6.06.34 1.48 1.15 2.33 1.64a13 13 0 0 1 3.41 2.41c.78.9.66 1.57.43 2-.76 1.33-3.72 1.26-7.51 1h-.59a2.86 2.86 0 0 1-2-.65 1.59 1.59 0 0 1-.25-1.43 2.21 2.21 0 0 0-.48-2c-.66-.89-.96-.91-.96-.91zm4.86 9.73z"/><path class="c" d="M106.71 189.8s5.1.3 7.27 2.88 0 3.85 0 3.85a1.48 1.48 0 0 1-1 .71 1.18 1.18 0 0 1-.26 0c-.83 0-1.62-.61-2.76-1.5a26.18 26.18 0 0 0-2.41-1.71c-1.23-.75-1.28-.7-2.11.14a8.94 8.94 0 0 1-2.24 1.83 3.36 3.36 0 0 1-2.88.51c-1-.47-1.08-1.64-1.17-2.76 0-.19 0-.38-.05-.57-.09-.89-.08-2 .77-2.5s2-.07 2.92.38a.92.92 0 0 0 .28.1c.22-.28.1-2.12-1.18-3.77-.22-.28-.64-.75-1-.69-.59.1-1.52 1.22-2.16 3.2a3.26 3.26 0 0 1-1.58 2.1 4.57 4.57 0 0 1-3.24-.14c-.52-.14-1.06-.29-1.64-.4-2.65-.48-4-1.21-4.27-2.29-.33-1.32 1.18-2.35 1.67-2.68 1.67-1.14 2.72-1.11 3.59-.87l.07-.15a1.15 1.15 0 0 0 .13-.54 3.07 3.07 0 0 0-.62-.29 7.78 7.78 0 0 1-1.91-1.07 2.26 2.26 0 0 1-1-1.63c0-.88.73-1.5 1.86-2.44.4-.33.86-.71 1.36-1.17a3.1 3.1 0 0 1 2.54-1c1.59.23 2.6 2 4 4.51.21.36.42.74.64 1.14s.31.51.43.68a5.76 5.76 0 0 0-.46-1.92c-1.07-2.35-.21-3.37 2.12-6.08l.44-.51a4.33 4.33 0 0 1 3.08-1.62 7.15 7.15 0 0 1 4.55 1.7.7.7 0 0 1 .25.71c-.06.3-.67 2.9-2.22 3.91a6.3 6.3 0 0 1-1.93.75 7.27 7.27 0 0 0-3.41 1.74c-.35.32-.38.48-.38.48a7.93 7.93 0 0 0 4.1.1 2.89 2.89 0 0 0 1.87-1.17 9.9 9.9 0 0 1 3-2.34 2.53 2.53 0 0 1 2.58 0c2.42 1.49 2.88 7.43 2.45 10.2-.17 1.07-.48 2.19-1.49 2.34-1.27.2-2.16-1.38-3.35-3.57l-.14-.25a2.4 2.4 0 0 0-1.56-1.28 6.35 6.35 0 0 0-4.37 1.08c-.3.17-.8.51-.7.82.18.52 1.28 1 1.67 1m.64 1.43a3.2 3.2 0 0 1-2.64-.57 2.28 2.28 0 0 1-.56 1.55 1.85 1.85 0 0 1-2.27.2 3.36 3.36 0 0 0-1.16-.42 2.48 2.48 0 0 0 0 1v.59a4.14 4.14 0 0 0 .28 1.52 3.08 3.08 0 0 0 1.21-.47 8 8 0 0 0 1.86-1.47 3 3 0 0 1 2.12-1.17 4.3 4.3 0 0 1 2.18.77 26.42 26.42 0 0 1 2.57 1.83 10.9 10.9 0 0 0 1.55 1.08c3.18-2.52-5.19-4.43-5.19-4.43zM92.34 187a3 3 0 0 0-1.65.69c-.92.63-1.06 1-1 1.1s.18.62 2.95 1.13c.66.12 1.26.28 1.79.43a3.84 3.84 0 0 0 2 .26 2 2 0 0 0 .72-1.18c.34-1.07 1.28-3.45 2.94-4.13a6.77 6.77 0 0 1-1.19-1.64c-.23-.39-.44-.78-.65-1.15-1-1.76-2-3.58-2.75-3.68-.34 0-.82.33-1.07.56-.52.48-1 .88-1.42 1.23s-1.31 1.08-1.31 1.28c0 0 0 .15.44.48a5.53 5.53 0 0 0 1.48.82c.9.37 2.13.88 1.38 2.77-.44 1.1-1.06 1.44-2.07 1.12a1.86 1.86 0 0 0-.59-.09zm17.1-1.82a4.93 4.93 0 0 1 1.23.15 4.12 4.12 0 0 1 2.62 2.08l.14.25a20.77 20.77 0 0 0 1.48 2.46 5.6 5.6 0 0 0 .16-.76c.47-3-.29-7.83-1.72-8.7-.15-.09-.35-.17-.77 0a8.32 8.32 0 0 0-2.51 2 4.53 4.53 0 0 1-2.8 1.7 10.51 10.51 0 0 1-4.84-.12 2 2 0 0 1-.4 1.1 3.9 3.9 0 0 1 1.24 1.07 8.07 8.07 0 0 1 .63 1 3.74 3.74 0 0 1 1-.83 9.4 9.4 0 0 1 4.54-1.41zm-2.73 4.63zm-.47-14.81h-.19a2.66 2.66 0 0 0-1.87 1l-.43.51c-2.33 2.72-2.57 3.07-1.89 4.54 0 0 0 .09.06.15l.06-.06a8.92 8.92 0 0 1 4.12-2.12 5.11 5.11 0 0 0 1.43-.53A5.11 5.11 0 0 0 109 176a5.15 5.15 0 0 0-2.76-1z"/><path class="d" d="M98.28 176.75h-.08c-1-.06-1.45-1.09-1.73-2-.55-1.83-.5-2.34 0-3a2.27 2.27 0 0 0 .38-1.35 8.68 8.68 0 0 0 0-1.36c-.08.14-.16.3-.25.5a13.15 13.15 0 0 0-.78 2.37c-.33 1.33-.64 2.58-2.75 2.74a2.83 2.83 0 0 1-2-.43 2.31 2.31 0 0 1-.69-1.88 4.68 4.68 0 0 0-.12-1 .77.77 0 0 1 .65-.92.86.86 0 0 1 1 .58 7.39 7.39 0 0 1 .16 1.31 2.18 2.18 0 0 0 .11.79 1.63 1.63 0 0 0 .71 0c.81-.07.89-.17 1.24-1.54a14.25 14.25 0 0 1 .86-2.62c.32-.69 1.06-2.29 2.29-2 1 .21 1.38 1.41 1.22 3.58a3.67 3.67 0 0 1-.63 2.06c-.13.19-.22.32.23 1.79a5.78 5.78 0 0 0 .23.64 15 15 0 0 0 1.12-2.15l.05-.12c.78-1.71 2.45-1.65 4.21-1.59a16.14 16.14 0 0 0 4.09-.24 6 6 0 0 0 1.59-.47 9.17 9.17 0 0 0-.94-.95c-.4-.37-.85-.79-1.3-1.27s-.82-.67-.83-.67a5 5 0 0 0-.6.72 8.2 8.2 0 0 1-1.3 1.4 2.77 2.77 0 0 1-2.55.68c-1.27-.34-2.27-1.68-3-4a2.24 2.24 0 0 1 .16-2c.58-.81 1.73-1 2.94-1.13a8.13 8.13 0 0 0 3.59-1.08c.24-.17.63-.49.57-.78a2.18 2.18 0 0 0-1.63-1 1.52 1.52 0 0 0-1.33.15c-1.39 1.62-3.77 1.07-4.83.54a.76.76 0 0 1-.34-.3c-.48-.77-1.5-1.92-2.18-1.92-.34 0-.65.39-.85.72-1.25 2.06-1 2.69-.65 3.63a7.23 7.23 0 0 1 .37 1.16c.16.71.55 3.06-.83 3.71-1.16.53-2.31-.61-2.69-1s-.9-1-1.27-1.36c-.6-.66-1.16-1.29-1.5-1.32-.09 0-.36 0-.92.5-.33.27-.64.51-.94.74-.52.41-1.32 1-1.31 1.24 0 0 0 .23.85.75 3.44 2.18 3.08 3.22 3 3.56s-.61.94-1.95.94h-.08v.22c.08.68.28 2.27-2.25 2.68-3.06.49-4.51-1.3-4.88-2.37-.44-.86-1.61-3.47-.37-4.59 0 0 0-.15-.17-.28a4.43 4.43 0 0 0-2.94-.63c-1.59.08-2.12-.49-2.3-1-.68-1.83 3.43-4.36 3.47-4.38a5.11 5.11 0 0 1 4-.49 5.76 5.76 0 0 0 2.62.05c.36-.1.49-.2.5-.23s-.21-.54-.31-.7c-.21-.35-.51-.84-.14-1.32a1.08 1.08 0 0 1 1.08-.35 1.64 1.64 0 0 0 1.28-.28s.18-.19 0-.59a1.83 1.83 0 0 1 .15-1.84c.65-.83 2-.9 3.66-.9a.34.34 0 0 0 .3-.11c.39-.45.28-1.83.07-2.77-1.22-.79-3.58-1.92-4.54-1.22a5.58 5.58 0 0 0-1.52 2.18c-.56 1.14-1.2 2.43-2.66 2.91l-1 .33c-1.84.66-3.92 1.41-5.09-.09-.21-.26-.48-.67-.78-1.14a15.16 15.16 0 0 0-2.1-2.73c-.25.69.39 1.7 1 2.59.73 1.15 1.64 2.58.3 3.5a4.08 4.08 0 0 1-3 .36c-1.17-.18-1.27-.11-1.39.17a4 4 0 0 0-.19 1.55c0 1.22 0 3.06-2.8 3.22a1.68 1.68 0 0 0-1.63.94 2.19 2.19 0 0 0 1 2.32c1.92 1.43 3 1.48 4.69 1.05 1.53-.38 5.52-.27 6.35 1.33.32.62.32 1.6-1.51 2.79a.9.9 0 0 1-1.18-.18.73.73 0 0 1 .23-1.1c.9-.59.95-.89 1-.9-.26-.43-3-.82-4.38-.47a6.4 6.4 0 0 1-6.21-1.35 3.62 3.62 0 0 1-1.52-4 3.25 3.25 0 0 1 3.14-2c1.16-.07 1.2-.36 1.2-1.68a5 5 0 0 1 .32-2.13c.66-1.51 2.21-1.28 3.24-1.12a2.73 2.73 0 0 0 1.73-.06c.06-.23-.44-1-.74-1.49-.75-1.17-1.67-2.63-1-4a1.53 1.53 0 0 1 1.31-1c1.31-.12 2.37 1.43 3.78 3.58.28.42.52.79.7 1 .38.48 1.48.14 3.1-.44l1-.35c.79-.26 1.21-1.11 1.69-2.09a7 7 0 0 1 2-2.76c2.33-1.7 6.41 1 6.87 1.36a.83.83 0 0 1 .31.43c.14.5.77 3.09-.32 4.36a2 2 0 0 1-1.63.71c-1.7 0-2.18.14-2.29.26a.89.89 0 0 0 .09.44 2 2 0 0 1-.35 2.09 2.91 2.91 0 0 1-1.7.8 1.71 1.71 0 0 1 .07 1.44 2.24 2.24 0 0 1-1.6 1.11 7.38 7.38 0 0 1-3.42 0 3.39 3.39 0 0 0-2.73.25 8.14 8.14 0 0 0-2.76 2.52 2.93 2.93 0 0 0 .55 0c2.31-.11 4.18.56 4.77 1.75a1.48 1.48 0 0 1-.36 1.8c-.21.25.06 1.6.73 2.89a.56.56 0 0 1 0 .12c.06.17.66 1.71 3 1.34 1-.16.94-.32.86-1a1.62 1.62 0 0 1 .32-1.47 1.9 1.9 0 0 1 1.41-.47h.13a9.5 9.5 0 0 0-2.12-1.68c-.7-.44-1.52-1.07-1.57-2s.81-1.64 1.91-2.49c.28-.22.58-.45.89-.71a3.26 3.26 0 0 1 2.19-.89c1.06.07 1.78.87 2.68 1.89.35.38.74.82 1.2 1.28a4.11 4.11 0 0 0 .67.55 4.35 4.35 0 0 0 0-1.93 6.61 6.61 0 0 0-.31-1c-.51-1.34-.74-2.41.77-4.89a2.73 2.73 0 0 1 2.33-1.52c1.69 0 3 1.78 3.52 2.5.5.19 1.79.59 2.49-.22a3.1 3.1 0 0 1 3.05-.71c1.25.26 2.63 1 2.9 2.21.12.49.11 1.43-1.2 2.33a9.7 9.7 0 0 1-4.36 1.38c-.71.09-1.61.22-1.77.45 0 0-.12.22 0 .77.58 1.93 1.32 2.76 1.81 2.89a1.11 1.11 0 0 0 .94-.34 6.22 6.22 0 0 0 1-1.15c.51-.65 1-1.33 1.94-1.36a3.12 3.12 0 0 1 2.17 1.22c.42.44.84.83 1.21 1.17 1 .89 1.72 1.59 1.44 2.47s-1.36 1.23-2.92 1.55a17.75 17.75 0 0 1-4.52.28c-1.82-.07-2.28 0-2.58.64l-.06.11c-.8 1.94-1.5 3.48-2.73 3.48z"/><path class="c" d="M42.09 163.91c-2.16-.66-.66-2-.66-2 3.65-1.17 6.14 2.41 6.14 2.41a5.28 5.28 0 0 0 .92 1c.47.44.94.88.89 1.54s-.48 1.07-1.45 1.72l-.78.52c-1.67 1.14-3.24 2.23-4.72 1.8a2.62 2.62 0 0 1-1.7-1.85c-.24-.69-.53-1.37-.79-2-3.43-8.69-9.33-10.24-9.33-10.24a4.37 4.37 0 0 0-2.77.21.83.83 0 0 0-.46.57c-.66 2.69-4.67 4.13-4.84 4.19-.74.24-2.86 1.13-3.2 2.22-.05.16-.2.65.53 1.42a.44.44 0 0 0 .1.08 5.37 5.37 0 0 0 1.49-1 11.42 11.42 0 0 1 2.45-1.5 4.93 4.93 0 0 1 3.32-.31 2.19 2.19 0 0 1-.14-.77 2.51 2.51 0 0 1 1.09-2 2.27 2.27 0 0 1 2.23-.33c2 .79 5.47 2.88 5.47 4.14a5 5 0 0 1-2.77 3.78 1.27 1.27 0 0 1-1.38-.35 2.6 2.6 0 0 0-1.73-.46 1.41 1.41 0 0 0-1.15.89c-.08.19.45.59.58.76s.68.45 2.28.45a13.63 13.63 0 0 0 3.4-1.12l.75-.31a1.7 1.7 0 0 1 1.81.14 1.84 1.84 0 0 1 .31 2.21 3.78 3.78 0 0 1-3.21 2.4 3.22 3.22 0 0 0-.59.08 4.62 4.62 0 0 0 1.9.41c1.15.06 2.25.23 2.55 1s-.58 1.52-1.61 2.3l-.43.33a2.65 2.65 0 0 1-1.1.46 3.37 3.37 0 0 1 1.22.4 3 3 0 0 1 1.47 2.28 2 2 0 0 1-.62 2c-1.15 1-3.33.58-5.64.17a4.65 4.65 0 0 0-1.1-.11c0 .09-.05.22-.07.33a4.9 4.9 0 0 1-.54 1.54 1.52 1.52 0 0 1-1.35.83c-1.28 0-2.49-1.6-3.19-2.72-1.41-.46-4.93-.71-5.3-.36-.12.11-.18.57.36 1.6 1.73 3.3 2.09 5.42 1.08 6.48a2.27 2.27 0 0 1-1.75.66 4.84 4.84 0 0 1-1.06-.13 4.81 4.81 0 0 1-3.36-2.39c-1.49-2.75-.11-6.66.55-7.93a5.78 5.78 0 0 1 2.15-2.13 3.18 3.18 0 0 1-1.51-1 2.39 2.39 0 0 1-.09-2.68 3.83 3.83 0 0 1 2.38-2.12 6.27 6.27 0 0 1 4.07.43.69.69 0 0 1 .33 1 .91.91 0 0 1-1.15.3 4.32 4.32 0 0 0-2.7-.32 2.23 2.23 0 0 0-1.37 1.28c-.26.55-.29 1-.08 1.24.45.58 2 .72 2.65.71a.81.81 0 0 1 .86.6.74.74 0 0 1-.53.85c-.75.24-2.82 1.17-3.47 2.43s-1.67 4.61-.56 6.66a3.15 3.15 0 0 0 2.25 1.59c.54.13.95.11 1.09 0s.75-1-1.32-4.9c-.77-1.48-.79-2.57-.05-3.26 1.39-1.29 6.48-.26 7.45.09a.83.83 0 0 1 .43.35 7.7 7.7 0 0 0 1.72 2.1 3.61 3.61 0 0 0 .35-1.06 1.74 1.74 0 0 1 .74-1.31 3.62 3.62 0 0 1 2.43-.12c1.53.28 3.63.64 4.15.21.17-.14.14-.49.1-.69a1.59 1.59 0 0 0-.71-1.24 21.22 21.22 0 0 0-6.12 0c-1.48.39-4.12.9-5.23-.12a2.37 2.37 0 0 1-.25-2.24c.64-1.69 3-1.46 4.92-1.27 1 .1 6 .7 6.37.4l.45-.34c.24-.18.54-.41.78-.61-.18 0-.41 0-.72-.06-2.21-.12-3.7-.91-3.71-2 0-.32.16-1.38 2.38-1.52a2 2 0 0 0 1.45-.88 2.11 2.11 0 0 0 .39-1l-.67.28a13 13 0 0 1-4.11 1.25c-.85 0-2.82 0-3.67-1.09-.3-.39-1.21-1.13-.77-2.14a3 3 0 0 1 2.52-1.84 4.36 4.36 0 0 1 3 .71c.52-.38.39-.67 1-1.09 1.25-.9 1.11-2-4-3.93a.39.39 0 0 0-.44.08 1.16 1.16 0 0 0-.51.89 2.66 2.66 0 0 0 1.06 1.64.69.69 0 0 1 .15 1 .9.9 0 0 1-1.08.26c-.84-.37-2.71-1.11-4.24-.43a10.3 10.3 0 0 0-2.08 1.38c-1 .76-1.78 1.42-2.76 1.36a1.9 1.9 0 0 1-1.26-.61 2.74 2.74 0 0 1-.86-2.78c.63-2 3.87-3.1 4.23-3.22.9-.32 3.4-1.52 3.78-3.1a2.36 2.36 0 0 1 1.21-1.52 5.55 5.55 0 0 1 3.65-.46s6.65 1.24 10.94 11.23c.27.62.57 1.33.83 2.07.16.48.38.78.59.85.63.16 2.09-.83 3.16-1.57l.8-.54c.69-.46.78-.65.79-.67a2.43 2.43 0 0 1-.42-.35c-.34-.32-.71-.84-1.19-1.38-2.74-2.58-4.07-1.09-4.07-1.09zm-16.41 12.91c.17.18 1.42.29 3.52-.29.29-.08.58-.14.85-.19-3.89-1.87-4.37.48-4.37.48zm52.25 21.5a11.87 11.87 0 0 1-6.82-2.85c-.78-.84-.45-1.46-.27-1.68s.41-.49.59-.68c.59-.62.94-1 .94-3.16 0-1.41-.27-1.48-1.18-1.72a5.15 5.15 0 0 1-2.1-1c-.78-.63-.81-1.21-.69-1.59.34-1.14 2.17-1.53 5.12-2.06l.47-.08a.89.89 0 0 0 .46-.17c.09-.3-.9-1.94-4.9-4.44-3.06-1.9-6.52-2.21-7.75-1.68-.11.05-.31.15-.32.26.12.31 1.55.64 2.41.84a14.4 14.4 0 0 1 4.76 1.72 2.23 2.23 0 0 1 1.2 1.64c0 .85-.77 1.4-1.68 2a8.52 8.52 0 0 0-3.19 3.4c-.72 1.58-.5 2-.5 2s.46.13 2.2-.57a1.36 1.36 0 0 1 1.4.13c.8.62.78 2.44 0 5.4a.84.84 0 0 1-.7.57c-3.31.45-5.27.25-5.85-.59a1.2 1.2 0 0 1 .15-1.48c.79-1 .4-1.84-1.75-3.61-1.59-1.3-1.37-2.54-1.11-4a13.31 13.31 0 0 0 .26-2.44 4.19 4.19 0 0 0-.09-1 12.17 12.17 0 0 0-1.67.88c-.44.25-.93.53-1.47.82-2.12 1.14-2.91 1.21-4 .35a3.26 3.26 0 0 0-1.25-.53c-.8-.24-1.25-.64-1.34-1.19-.17-1.08 1.16-1.93 3-3.09.44-.28.88-.56 1.29-.84a5.64 5.64 0 0 0 1.19-.95 12.82 12.82 0 0 0-1.83-1.81l-.39-.36a2.91 2.91 0 0 1-1.24-2.35c.16-1 1.23-1.55 2.27-2.08a6.4 6.4 0 0 0 2.09-1.38 2.43 2.43 0 0 1 2.3-1.15c1.29.23 2 1.77 2.58 4 .28 1 .56 1.15.56 1.15.41.11 2.06-1.17 2.76-1.72s1.83-1.28 2.87-.89c1.24.46 1.39 2.06 1.53 3.61.05.54.18.88.38 1s.95.25 3.53-1.48a3.66 3.66 0 0 1 3-.57c2.8.7 4.66 4.56 4.86 5a.72.72 0 0 1-.16.83.88.88 0 0 1-.9.2c-.31-.1-.72-.17-.92 0a1.51 1.51 0 0 0 1.2 2.24 6.61 6.61 0 0 0 2.89-1c1.39-.76 3.12-1.69 4.66-.29a1.68 1.68 0 0 1 .65 1.53c-.2 1.17-1.73 1.91-4.28 3.13-1.38.66-3 1.41-4.59 2.37-2.56 1.42-2.64 2.09-2.64 2.09h.26a.81.81 0 0 1 .37.15c.11.07 2.71 1.94 3.7 6.46a2 2 0 0 1-1.07 2.47 3.21 3.21 0 0 1-1.25.24zm-5.54-3.85c.72.85 4.45 2.67 6 2.27.16 0 .39-.11.24-.81a9.87 9.87 0 0 0-3-5.44 1.8 1.8 0 0 1-1.38-1.23c-.24-1.07.81-2.22 3.38-3.73 1.71-1 3.38-1.8 4.72-2.44s3.29-1.58 3.39-2a.73.73 0 0 0-.17-.2c-.53-.49-1.06-.32-2.6.52a8 8 0 0 1-3.75 1.25 3 3 0 0 1-2.79-1.77 2.69 2.69 0 0 1 .35-3.08 2.15 2.15 0 0 1 1-.55c-.72-1.18-1.88-2.66-3.11-3a1.8 1.8 0 0 0-1.54.32c-2.4 1.61-4.07 2.14-5.24 1.65a2.38 2.38 0 0 1-1.37-2.21c-.06-.71-.19-2.12-.49-2.34a2.64 2.64 0 0 0-1.12.64c-1.91 1.49-3.15 2.37-4.38 2a2.85 2.85 0 0 1-1.69-2.24c-.68-2.49-1.17-2.82-1.27-2.86a2.15 2.15 0 0 0-.61.57 7.86 7.86 0 0 1-2.62 1.81c-.58.29-1.37.69-1.41.94 0 0 0 .32.76 1l.39.36c1.64 1.49 2.39 2.17 2.32 3s-.82 1.33-1.86 2c-.43.3-.89.59-1.34.88a15.76 15.76 0 0 0-2.16 1.52h.06a5.3 5.3 0 0 1 1.75.92c.35.27.46.36 2.06-.51.53-.28 1-.55 1.42-.79 1.52-.87 2.52-1.45 3.43-1s.94 1.42.94 2.45a14.14 14.14 0 0 1-.29 2.69c-.24 1.33-.33 1.82.57 2.56a12.31 12.31 0 0 1 1.86 1.78 4.45 4.45 0 0 1 .55-3 10.15 10.15 0 0 1 3.71-4 5.75 5.75 0 0 0 1-.83 4.81 4.81 0 0 0-.5-.39 13.14 13.14 0 0 0-4.18-1.47c-1.89-.44-3.86-.89-3.68-2.49a1.91 1.91 0 0 1 1.3-1.51c1.9-.81 5.94-.36 9.41 1.81 2.28 1.41 6 4.08 5.6 6-.09.4-.44 1.12-1.78 1.36l-.47.09a18.28 18.28 0 0 0-3.71.91l.07.07a3.63 3.63 0 0 0 1.45.62c1.32.35 2.4.83 2.4 3.21 0 2.56-.5 3.28-1.34 4.17zm-9.22-1.2a14.93 14.93 0 0 0 3.35-.07 12.92 12.92 0 0 0 .46-3.08c-1.38.53-2.82.88-3.69.11a2.71 2.71 0 0 1-.12 3.04zm6.83-7.34zm-11-19.31c-.75 0-1.57-.08-2.43-.16s-2-.2-3.19-.24c-1.75-.06-2.7-.36-3.18-1s-.2-1.65.14-2.52a5.36 5.36 0 0 0 .53-2.34c-.13-2.12.85-2.63 2-3a2.37 2.37 0 0 0 1.37-.89c.5-.72.4-.84-.64-1.7a10.7 10.7 0 0 1-1.6-1.55 2.82 2.82 0 0 1-.7-2.44c.34-1.45 2-2.49 3.59-3.32 2.61-1.36 4.22-.66 6.9.5l1.57.67a.73.73 0 0 1 .42 1 .88.88 0 0 1-1.12.39l-1.59-.68c-2.55-1.1-3.5-1.52-5.34-.55s-2.62 1.64-2.77 2.3a1.41 1.41 0 0 0 .41 1.2 8.6 8.6 0 0 0 1.35 1.3c1 .82 2.21 1.84.93 3.68a4 4 0 0 1-2.21 1.51c-.73.25-.93.31-.85 1.46a6.73 6.73 0 0 1-.64 3 3.1 3.1 0 0 0-.32 1.14s.23.27 1.83.32c1.24.05 2.34.15 3.31.25 3.21.31 3.94.26 4.29-1 .18-.66.3-1.26.4-1.84a6.8 6.8 0 0 1 2.69-4.91c2.44-1.88 2.86-2.33 2.71-3.79 0-.28-.11-1.14-.34-1.29s-.5-.17-1.83.09a8 8 0 0 1-5.2-.78c-.36-.16-.72-.32-1.11-.46a3.09 3.09 0 0 0-1.59-.21 2.69 2.69 0 0 0 .43.49 7.67 7.67 0 0 0 3.2 1.72 11.89 11.89 0 0 1 1.47.53 1.29 1.29 0 0 0 .67.11 1.15 1.15 0 0 1 1 .43c.33.49.14.8-.76 2.29l-.78 1.32c-.64 1.07-1.1 2-1.47 2.73-1.05 2.09-1.74 3.48-4.34 3-1.86-.37-2.85-1-3-1.88s.39-1.56 1.63-2.27a8.52 8.52 0 0 0 2.87-3.1.89.89 0 0 1 1.13-.38.75.75 0 0 1 .41 1 10 10 0 0 1-3.51 3.75c-.74.43-.85.69-.86.72a3.58 3.58 0 0 0 1.72.62c1.19.23 1.33.11 2.44-2.1.38-.76.85-1.71 1.52-2.83.31-.53.57-1 .79-1.32l.31-.52a2.77 2.77 0 0 1-.55-.19 11.13 11.13 0 0 0-1.27-.45 9.25 9.25 0 0 1-3.84-2.15c-1.32-1.2-1-2-.76-2.43.69-.95 2.42-.86 3.74-.38.42.16.82.33 1.21.5a6.07 6.07 0 0 0 4.12.66c1.36-.26 2.42-.33 3.19.18a3 3 0 0 1 1 2.4c.23 2.28-.85 3.22-3.3 5.11-1.59 1.23-1.8 2.33-2.11 4-.11.58-.24 1.24-.43 1.95-.48 1.9-1.86 2.35-3.66 2.35z"/><path class="d" d="M36.05 210.71h-.3c-1.41-.19-2.79-1.59-4.22-4.28-1.84-3.48-2.14-5.91-.8-6.68.42-.24 1.56-.6 3.16 1.23a4.25 4.25 0 0 0 4.11 1.47.87.87 0 0 0 .57-1.08l-.1-.76c-.26-2.07-.29-2.29-2.16-2.9a15.75 15.75 0 0 1-2.08-.87c-1.37-.66-2-1-3.18-.24-2.37 1.44-4.82 3.15-3.83 5.22a1.91 1.91 0 0 1 .05 2 1.51 1.51 0 0 1-1.43.48 5.77 5.77 0 0 1-3.93-2.91c-.23-.5-.56-1.09-.91-1.72-1.13-2-2.42-4.32-1.73-6 .55-1.4 2-1.21 2.81-1.1 1.11.15 1.84.25 2.45-1.16.72-1.63-.05-3.61-.62-5-.46-1.19-.77-2-.26-2.56a1.33 1.33 0 0 1 1.19-.41c2.54.23 3.77 3.06 4.48 5.17.1.29.19.59.29.91.32 1.05.8 2.64 1.43 2.83a1.82 1.82 0 0 0 1.26-.51l.46-.34c1.38-1 4-2.92 3.8-3.64 0-.1-.24-.31-1-.51-2.83-.77-3.34-.33-3.35-.33s-.06.17.07.54a.76.76 0 0 1-.53 1 .86.86 0 0 1-1.07-.49 1.81 1.81 0 0 1 .32-2.11c.82-.76 2.42-.79 5-.07 1.26.34 2 .91 2.15 1.69.35 1.63-2 3.34-4.4 5.14l-.46.34a3.24 3.24 0 0 1-2.84.78c-1.51-.44-2.06-2.27-2.55-3.89-.09-.3-.18-.59-.28-.86-.73-2.18-1.56-3.5-2.47-3.94.08.25.19.53.28.76.62 1.58 1.55 4 .6 6.15-1.11 2.53-3.1 2.27-4.28 2.11-.89-.11-.9-.08-1 .09-.43 1.09.72 3.16 1.65 4.82.37.65.71 1.27 1 1.82a4.43 4.43 0 0 0 2.32 1.92 2 2 0 0 0-.12-.28c-1.64-3.43 2.32-5.83 4.44-7.13s3.49-.52 4.91.16a14.25 14.25 0 0 0 1.86.79c2.75.89 3 1.87 3.27 4.17l.1.74a2.4 2.4 0 0 1-1.59 2.71c-1.84.71-4.53-.15-6.11-2a3 3 0 0 0-.94-.79c-.1.43-.05 1.82 1.42 4.6 1.61 3 2.66 3.39 2.94 3.42h.16a23.81 23.81 0 0 1 5.37-5.91l.64-.48c.54-.39 1-.73 1.18-.91a5 5 0 0 1-.43-1.31c-.23-1.3-1.52-2.17-3-3.18-.46-.31-.93-.63-1.39-1-1.84-1.37-1.37-3.09-1-4.47a6.74 6.74 0 0 0 .3-1.61c0-2.12 2-3.17 3.72-4.09l.64-.34c1.07-.59 1.38-1.89 1.75-3.39a18.5 18.5 0 0 1 .5-1.83 4 4 0 0 1 2.29-2.38 3.89 3.89 0 0 0 1.9-1.69c.09-.16 0-.22 0-.26-.43-.69-3.19-1.32-5.62-1.51-.85.51-1.63 1.22-1.64 1.49 1.1.73 2.29 2.08 2.2 3.52a3 3 0 0 1-1.86 2.41 16.2 16.2 0 0 1-5.81 1.64.84.84 0 0 1-.91-.72.81.81 0 0 1 .79-.82 14.41 14.41 0 0 0 5.09-1.44c.64-.34 1-.72 1-1.17.06-.76-.72-1.66-1.47-2.17a1.5 1.5 0 0 1-.72-1.32c.07-1.32 2.06-2.53 2.67-2.87a.86.86 0 0 1 .5-.12c1 .07 6.12.49 7.26 2.31a1.66 1.66 0 0 1 0 1.73 5.44 5.44 0 0 1-2.57 2.33c-.74.39-1.22.65-1.51 1.49-.19.56-.33 1.15-.47 1.71-.41 1.7-.84 3.45-2.53 4.38l-.65.35c-1.8 1-2.89 1.62-2.89 2.76a7.76 7.76 0 0 1-.35 2c-.37 1.38-.54 2.19.42 2.91.44.32.89.63 1.33.93 1.7 1.16 3.32 2.25 3.66 4.17a3.56 3.56 0 0 0 .32.94c.52 1.1.06 1.44-1.66 2.73l-.64.48a22.66 22.66 0 0 0-5.06 5.6l-.11.15a2 2 0 0 1-1.25.46zM25.88 203zm59.91-8.93a12.44 12.44 0 0 1-1.37-.1 9.86 9.86 0 0 0-2-.1 2.18 2.18 0 0 1-1.88-.62c-.85-.89-.81-2.47-.69-4.16.21-2.89 2.62-3.11 4.56-3.28a.69.69 0 0 1 .59.19c.39.41 1.68 1.85 1.68 2.94a3.54 3.54 0 0 0 .39.94 5 5 0 0 1 .74 2.76c-.15 1.17-1.02 1.43-2.02 1.43zm-2.94-1.77a15.79 15.79 0 0 1 1.72.13 5 5 0 0 0 1.8 0 4 4 0 0 0-.61-1.82 3.85 3.85 0 0 1-.56-1.61 4.73 4.73 0 0 0-1-1.6c-2 .2-2.78.47-2.88 1.83-.06.87-.18 2.48.26 2.95.05.05.21.21.73.17a4.93 4.93 0 0 1 .54-.05z"/><path class="b" d="M95.47 87.56c3.12 2 4.09 1.42 4.57-2.62h3.25a103.19 103.19 0 0 0-.76 18.35 14.45 14.45 0 0 0-3.6 0c-.9-8.69-4.22-15.8-15.22-15.8-10.45 0-15.85 7-15.85 23.81 0 18.43 6.36 24 15.29 24 8 0 14.12-4.94 14.12-14.38 0-4.79-.69-6.51-4.29-6.51h-3.67v-3.52s6.65.22 10.32.22 10.31-.22 10.31-.22v3.52H107c-2.07 0-3 1-3 4.49s0 13.78.34 19.25a15 15 0 0 0-3.67 0c-.27-1.35-.9-5.69-1.66-9.29a17.34 17.34 0 0 1-16 9.81c-14 0-23-7.86-23-27.34 0-19.25 10.24-27.19 23.25-27.19a21.76 21.76 0 0 1 12.21 3.42zm31.28 24.21c-3 0-4.23-1.19-6.35-2.63-2.27-1.53-4.86-1.61-5.56-.17a1.64 1.64 0 0 1 2.19 1.36 1.4 1.4 0 0 1-1.49 1.44c-.94 0-2-.6-2-2.55 0-4.83 2.35-7.46 7.29-10.18 4.08-2.12 6-4 6-7.29 0-3-1.34-5.09-5.18-5.09-2.35 0-5.09.93-5.87 3.22a5.2 5.2 0 0 1 1.72-.34 2.42 2.42 0 0 1 2.66 2.63c0 1.45-1 2.63-3 2.63-1.73 0-3.06-1.1-3.06-3.47 0-4.08 3.6-6.71 8.39-6.71 6.26 0 8.77 2.89 8.77 6.87 0 4.42-2.35 7-7.91 8.66-4.86 1.61-7.76 4-8.55 7 1.42-1.78 4.71-2.21 8.08-1.28 3.45 1.11 8.07 1.87 7.21-2.2l1.41-.09c1.5 4.42-.21 8.19-4.75 8.19zm31.36-22.64h-4.64c-2.49 0-3.52.83-3.59 3.75-.14 3.89-.14 32.88 0 37.53.07 2.39 1.1 3.22 3.59 3.22h6.65c8.79 0 11.49-2 12-15.43h3.39c-.34 4.64-.69 14.68-.62 19.32-3.25-.3-10.38-.3-13.36-.3h-15c-3.11 0-10.17.08-11.42.15v-3.74h4.23c3.18 0 3.94-.68 4-3.22.14-4.65.14-33.64 0-37.53-.07-2.92-1.11-3.75-3.6-3.75h-4.54v-3.59s7.41.22 11.49.22 8.72-.22 11.42-.22z"/><path class="b" d="M210.71 120.52c-5.39-.15-14.74-.15-20.07 0l-2.21 6.66c-1.39 4.2-.69 6.45 3.87 6.45h3.33l-.07 3.74s-6.79-.15-10.59-.15-10.59.15-10.59.15v-3.74h2.9c3.95 0 5.54-1.35 7.2-5.92 1.18-3.15 13.08-36.7 15.09-42.7 0 0 1.73.15 2.91.15s3-.15 3-.15c2.91 9.44 12.6 36.33 15 42.7 1.73 4.49 3 5.92 6.44 5.92h3v3.74s-7.55-.15-11.77-.15-11.84.15-11.84.15l.07-3.74h3.26c3.67 0 4.7-2.1 3.25-6.6zm-9.89-29l-9.14 25.84c5 .08 12.87.08 18 0-2.91-8.6-6.79-19.99-8.86-25.83z"/><path class="b" d="M252 137.22h-11.66l-11.49.08v-3.67H233c3.18 0 4.08-.45 4.08-3 .14-4.57.14-33.86 0-37.83-.06-2.92-1.1-3.67-3.59-3.67h-4.64v-3.59c1.11 0 9.48.15 11.56.15 3.18 0 8.3-.08 11.21-.08 11.28 0 17.72 4.27 17.72 13a12.13 12.13 0 0 1-8.86 12c6.57 1.34 10.87 5.69 10.87 12 0 8.84-4.3 14.61-19.35 14.61zm-8.31-27.94H250c8.65 0 12.18-2.69 12.18-10.63 0-6.52-3.6-10-11.63-10h-3.81c-2.07 0-3 1-3 3.22s-.08 9.7-.08 17.41zm0 2.92c0 8.32.07 16.41.14 18.88s1 3.07 3 3.07h4.64c9.34 0 12.6-3.74 12.6-11.46 0-6.37-3.32-10.49-13.78-10.49z"/><path class="e" d="M31.91 144.84L40.08 141.03 40.98 143.1 32.31 147.65 31.91 144.84z"/><path class="e" d="M34.44 150.28L41.59 144.79 42.92 146.62 35.44 152.94 34.44 150.28z"/><path class="e" d="M39.15 155.93L44.64 149 45.53 150.61 40.54 157.21 39.15 155.93z"/><path class="e" d="M42 121.4c-3.94-.53-32.78-6.65-37.38-8.46a23.3 23.3 0 0 1-1.39-8c3.4 2.83 38.38 11.81 38.38 11.81a9.58 9.58 0 0 1 .39 4.7"/><path class="d" d="M46.07 153.5c.42-3.52 0-8.64-9.8-18.05-15.77-15-21.42-7.64-30.58-20.06 0 0 2.65 9.62 18.84 16.82 10.41 4.62 19.75 13.41 20.54 21.24a14.45 14.45 0 0 0 .26 1.53 2.3 2.3 0 0 0 .74-1.48z"/><path class="c" d="M46.66 155a11.07 11.07 0 0 0 .25-1.75c.3-3.5.9-11.75-8.64-21.07-17.27-14.1-20.79-5.96-32.34-17.24 0 0 2.08 7 22 16 10.27 4.56 16.27 14.13 17.38 21.86a8.32 8.32 0 0 1 .14 2.24s0 .83.47.86c.62.04.74-.9.74-.9z"/><path class="e" d="M39.15 127.17s-.25 1.34.92-2.51c0 0-22.39-2.66-25.91-3.31 0 0 8.62 4.06 14.16 5.31l13.68.64"/><path class="f" d="M248.67 44.07l-.53.11-2.48-11.33a20.12 20.12 0 0 0-39.32 8.6l2.47 11.33-.45.1a3.24 3.24 0 0 0-2.47 3.85l5.9 27a3.25 3.25 0 0 0 3.86 2.47L256 77.4a3.26 3.26 0 0 0 2.48-3.86l-5.91-27a3.24 3.24 0 0 0-3.9-2.47zm-35.41-4.21a13 13 0 1 1 25.44-5.56l2.49 11.4-25.43 5.56z"/><path class="b" d="M240.78 31.17l3.09 14.2 2.92-.64-3.06-14s-1.8-6.78-7-9.87a41.53 41.53 0 0 1 4.05 10.31z"/><path class="g" d="M210 52.61l-2.6-11.89s-2.95-13 10.08-20.68c0 0-9.82 9.7-7.61 19.84l2.66 12.18z"/><rect class="h" x="212.11" y="53.6" width="7.03" height="26.92" rx="1.35" transform="rotate(-11.5 220.427 65.517)"/><path class="b" d="M215.81 82.24l35.66-7.8a2.7 2.7 0 0 0 2.25-3.4L249 49.55a1.35 1.35 0 0 1 2.63-.57l4.94 22.61c1.08 4.92-4.1 5.39-4.1 5.39l-36.1 7.89s-3 .21-4-4.47c-.03 0 1.89 2.18 3.44 1.84z"/><path class="g" d="M235.89 61.74a3.74 3.74 0 1 0-5 4.3l-.35 5.86 7.11-1.56-3-5a3.72 3.72 0 0 0 1.24-3.6z"/><path class="b" d="M234.82 61.13a3.74 3.74 0 1 0-5 4.3l-.35 5.86 7.11-1.57-3-5a3.73 3.73 0 0 0 1.24-3.59z"/><path class="e" d="M3 94.31S28.53 111 41.12 116.06L37 106.42s-25.16-13-28.32-16C8.65 90.37 4.76 92 3 94.31zm100.19-80.83s13.1 17.52 14.53 20.33c0 0 8.78 1.4 10.3 1.73 0 0-18-24.33-19.06-26.67.04 0-5.1 2.38-5.77 4.61z"/><path class="d" d="M120 6.33c-5.46 1.24-18.17 1-24.89 24.94-6.24 24-24.42 32.62-24.42 32.62s13.36-16.44 15.64-36.48S120 6.33 120 6.33z"/><path class="c" d="M120 6.33c-5.44 1.34-19.69-1.84-25.7 22.24a59.62 59.62 0 0 1-23.6 35.32s13-18.93 14.65-39S120 6.33 120 6.33z"/><path class="e" d="M136.12 6.39s21.75 20.12 25.57 23.13c0 0 1.11-.33 4.8-3.34L148.2 9.48z"/><path class="i" d="M150.38 33.31c-5.51.64 15.86 2.16 21.12-17 5-17.73 19.26-17.34 27.14-15.28 6.05.67 44.56 6.41 58.07 17.9 0 0-25.36-28.6-65.9-14.89-6.59 2-5.61 12.27-5.61 12.27-1.98 4.77-5.97 17.01-34.82 17z"/><path class="d" d="M212 22.57a24.08 24.08 0 0 0-3.9 5.58c-14.54-2.76-34.63-7.45-48.1-13.51-24.61-10.7-40-8.31-40-8.31s19.81-5.07 59.84 8A276.5 276.5 0 0 0 212 22.57"/><path class="e" d="M59.33 70.7S30.71 46 27.32 41.94l-1.91 8.7S49.25 72 51.51 74.38a39.6 39.6 0 0 0 7.82-3.68zm7.72-3.47s-30.2-32.31-34.33-35.65c0 0 4.13-2.68 6.85-3.35L70.7 63.89zM52.09 25.89s21.45 25.2 24 27.87L79.25 48 62.78 26.56s-7.13-.67-10.69-.67zM118.94 6s17.73 25.93 21.2 29.27c0 0 7.38 0 12-2 0 0-26.19-25.42-27.22-27.43zm94 15.82L187 6.05l1.21-3.12 29.4 16a15 15 0 0 0-4.67 2.89zm18.37-4.06L202.18 1.53 193.43 1l28.76 16.38a23 23 0 0 1 9.12.38z"/><path class="j" d="M41.7 118.61c-6.73-15.52-5-5.41-18.9-36.67C6.17 45.49 35.27 30.06 35.27 30.06c-6.87 8.57-13.6 24.51-1.14 54.27 4 10.66 6.62 17.15 8.28 23.4z"/><path class="d" d="M42.34 120.05c-6.88-18.25-5.14-8.43-18.76-42-16.64-36.44 9.14-46.47 9.14-46.47-4.41 8.36-11 19.39 1.41 49.15 2.95 7.78 5.11 12.74 6.72 18.58 0 0 3.4 12.42 1.49 20.74z"/><path class="j" d="M37.2 28.85s23-14.86 46.67-8.17c23.12 6.69 33 16.76 64 13.75 0 0-27.95 6.32-61.47-4.72-34.96-11.03-49.2-.86-49.2-.86z"/><path class="d" d="M32.72 31.58s24.25-16 47.93-9.36c23.09 6.69 32.22 15.38 63.21 12.38 0 0-27.15 7.69-60.64-3.35-34.93-11.04-50.5.33-50.5.33zm116.17 2.15s20.38-1.79 23.2-16.86C175.23.09 192.57.31 198.64 1c6.25.69 40.41 8.7 58.07 17.9 0 0-26.1-25.48-63.9-15.89-6.61 2-7 13.88-7 13.88s-3.39 16.84-36.92 16.84z"/><path class="c" d="M209.19 26.24C194.54 23.49 174 19 160.28 12.86 135.58 2.15 120 6.33 120 6.33s20-6.85 60.2 6.19a275.41 275.41 0 0 0 33.28 8.85 21.85 21.85 0 0 0-4.29 4.87z"/><path class="d" d="M6.34 116s-6.76-7.43-4.18-22.69C3.44 85.69 7.08 78.52 18 76.45c26.94-5 29.59 4.69 49.35-9.36 0 0-11.15 22.51-46.4 21.83-7.48-.09-11.84.71-14.27 4.37-5.24 8.97-.34 22.71-.34 22.71z"/><path class="c" d="M6.34 116C5.48 114.34-4.08 106 2 88.87c2.35-6.23 6.17-12 15.44-14.49 26.61-7.06 33.25 3.55 53.24-10.49 0 0-14.86 23.64-50.27 23C-5.69 86.84 6.34 116 6.34 116z"/><path class="e" d="M252.55 26.63L224.69 5.71 232 7.39l27.68 17.4s-1.12 2.73-7.13 1.84z"/><path class="d" d="M221.69 25s-4.41 1.65-6.18 4.31c7.26 1.27 11.49 1.83 11.49 1.83s30.62 4.21 35.31-.13-5.6-12.16-5.6-12.16 4 6.8-1.35 8.47c-3.18 1-16 .81-33.67-2.32"/><path class="c" d="M216.68 28c6.7 1.16 11.27 1.48 11.27 1.48s30.73 4.21 35.43-.14S257.12 19 257.12 19s4.63 5-.72 6.69c-3 1-15.39 1.18-31.85-1.54a13 13 0 0 0-7.87 3.85zM44.13 160.28s-25.07-12.91-14.48-23.88c10.09-10.47 12.69-16.35 12.69-16.35s1.58 9.89-7.15 19.37c-8.5 9.23 9.31 19.79 9.31 19.79s.83.38.63 1-1 .07-1 .07z"/><path class="d" d="M44.92 160.81s-26.38-15.18-16-25.45C39 127.94 42.3 120.05 42.3 120.05s.36 8.76-7.84 18.37 9.25 20.28 9.25 20.28l1.71.79s.91.54.75 1.08-1.25.24-1.25.24z"/></svg>